<?xml version="1.0" encoding="utf-8"?>
<!-- Generator: Adobe Illustrator 25.3.1, SVG Export Plug-In . SVG Version: 6.00 Build 0)  -->
<svg version="1.1" id="Layer_1" xmlns="http://www.w3.org/2000/svg" xmlns:xlink="http://www.w3.org/1999/xlink" x="0px" y="0px"
	 viewBox="0 0 14400 14400" style="enable-background:new 0 0 14400 14400;" xml:space="preserve">
<style type="text/css">
	.st0{fill:none;}
	.st1{fill:#0071BC;}
	.st2{fill:#0000FF;}
	.st3{fill:#42210B;}
	.st4{fill:#FFDBAC;}
	.st5{fill:#FFFFFF;}
	.st6{fill:#FBB03B;}
	.st7{opacity:0.49;fill:url(#SVGID_1_);}
	.st8{fill:#42210B;stroke:#4D4D4D;stroke-miterlimit:10;}
	.st9{fill:#C1272D;}
	.st10{clip-path:url(#SVGID_3_);fill:#FFFFFF;}
</style>
<line class="st0" x1="5766.11" y1="7010.91" x2="5868.29" y2="7010.91"/>
<circle class="st1" cx="7200" cy="7199.5" r="502.2"/>
<path class="st2" d="M7456.91,7119.77c0-14.93-7.67-28.07-19.27-35.71v-102.53c0-6.42-0.77-12.66-2.18-18.65h2.18l0,0
	c0-68.9-55.85-124.75-124.75-124.75h-192.17c-67.13,0-121.55,54.42-121.55,121.55v3.19h2.46v116.33
	c-11.09,9.6-18.12,23.77-18.12,39.59v110.1v80.12v11.9c0,58.22,33.07,108.71,81.45,133.73v1.6c0,44.75,36.28,81.02,81.02,81.02
	h210.63c44.75,0,81.02-36.27,81.02-81.02v-300.76C7449.24,7147.85,7456.91,7134.71,7456.91,7119.77z"/>
<path class="st3" d="M7315.2,7561.87h-210.63c-44.75,0-81.02-36.27-81.02-81.02v-474.72c0-44.75,36.28-81.02,81.02-81.02h210.63
	c44.75,0,81.02,36.27,81.02,81.02v474.72C7396.22,7525.59,7359.94,7561.87,7315.2,7561.87z"/>
<path class="st3" d="M6994.45,7385.96L6994.45,7385.96c-28.91,0-52.35-23.44-52.35-52.35v-190.22c0-28.91,23.44-52.35,52.35-52.35
	l0,0V7385.96z"/>
<path class="st4" d="M7124.78,7482.15L7124.78,7482.15c-90.89,0-164.57-73.68-164.57-164.57v-336.98c0-48.23,39.1-87.33,87.33-87.33
	h248.72c39,0,70.61,31.61,70.61,70.61v276.18C7366.87,7373.76,7258.49,7482.15,7124.78,7482.15z"/>
<circle class="st5" cx="7060.21" cy="7107.7" r="36.67"/>
<circle class="st5" cx="7236.87" cy="7107.7" r="36.67"/>
<circle cx="7060.21" cy="7107.7" r="16.67"/>
<circle cx="7236.87" cy="7107.7" r="16.67"/>
<path d="M7091.73,7057.91h-63.05c-10.3,0-18.65-8.35-18.65-18.65l0,0c0-10.3,8.35-18.65,18.65-18.65h63.05
	c10.3,0,18.65,8.35,18.65,18.65l0,0C7110.39,7049.56,7102.04,7057.91,7091.73,7057.91z"/>
<path d="M7268.4,7057.91h-63.05c-10.3,0-18.65-8.35-18.65-18.65l0,0c0-10.3,8.35-18.65,18.65-18.65h63.05
	c10.3,0,18.65,8.35,18.65,18.65l0,0C7287.05,7049.56,7278.7,7057.91,7268.4,7057.91z"/>
<path class="st3" d="M7396.22,6987.48h-438.48v-3.19c0-67.13,54.42-121.55,121.55-121.55h192.17
	C7340.37,6862.73,7396.22,6918.58,7396.22,6987.48L7396.22,6987.48z"/>
<circle class="st4" cx="7372.76" cy="7144.37" r="42.73"/>
<circle class="st6" cx="7372.76" cy="7144.37" r="23.46"/>
<path class="st3" d="M7372.76,7385.96L7372.76,7385.96c-28.92,0-52.35-23.44-52.35-52.35v-190.22c0-28.91,23.44-52.35,52.35-52.35
	l0,0V7385.96z"/>
<linearGradient id="SVGID_1_" gradientUnits="userSpaceOnUse" x1="5861.2397" y1="7988.0962" x2="5975.3335" y2="7988.0962" gradientTransform="matrix(6.123234e-17 -1 1 6.123234e-17 -839.5547 13086.1123)">
	<stop  offset="0" style="stop-color:#FFFFFF;stop-opacity:0"/>
	<stop  offset="1" style="stop-color:#FFFFFF"/>
</linearGradient>
<path class="st7" d="M7190.07,7147.12v41.4c0,20.07-16.27,36.35-36.35,36.35h-10.37c-20.07,0-36.35-16.27-36.35-36.35v-41.4
	c0-20.07,16.27-36.35,36.35-36.35h10.37C7173.8,7110.78,7190.07,7127.05,7190.07,7147.12z"/>
<circle cx="7162.24" cy="7187.7" r="7.63"/>
<circle cx="7130.19" cy="7187.1" r="7.63"/>
<path class="st8" d="M7196.98,7495.97h-104.43c-83.1,0-150.46-67.36-150.46-150.46v-92.02c0-27.54,22.33-49.87,49.87-49.87h304.76
	c27.54,0,49.87,22.33,49.87,49.87v92.87C7346.59,7428.99,7279.61,7495.97,7196.98,7495.97z"/>
<g>
	<path class="st9" d="M7176.47,7374.85h-55.86c-47.8,0-86.56-38.75-86.56-86.56v-27.93h228.98v27.93
		C7263.03,7336.1,7224.28,7374.85,7176.47,7374.85z"/>
	<g>
		<defs>
			<path id="SVGID_2_" d="M7176.47,7374.85h-55.86c-47.8,0-86.56-38.75-86.56-86.56v-27.93h228.98v27.93
				C7263.03,7336.1,7224.28,7374.85,7176.47,7374.85z"/>
		</defs>
		<clipPath id="SVGID_3_">
			<use xlink:href="#SVGID_2_"  style="overflow:visible;"/>
		</clipPath>
		<path class="st10" d="M7247.81,7297.34h-198.54c-10.63,0-19.25-8.62-19.25-19.25v-12.43c0-10.63,8.62-19.25,19.25-19.25h198.54
			c10.63,0,19.25,8.62,19.25,19.25v12.43C7267.07,7288.72,7258.44,7297.34,7247.81,7297.34z"/>
		<path class="st10" d="M7250.15,7374.85h-211.28c-7.12,0-12.88-5.77-12.88-12.88v-8.31c0-7.12,5.77-12.88,12.88-12.88h211.28
			c7.12,0,12.88,5.77,12.88,12.88v8.31C7263.03,7369.09,7257.26,7374.85,7250.15,7374.85z"/>
	</g>
</g>
</svg>
