<?xml version="1.0" encoding="utf-8"?>
<!-- Generator: Adobe Illustrator 25.3.1, SVG Export Plug-In . SVG Version: 6.00 Build 0)  -->
<svg version="1.1" id="Layer_1" xmlns="http://www.w3.org/2000/svg" xmlns:xlink="http://www.w3.org/1999/xlink" x="0px" y="0px"
	 viewBox="0 0 1080 1920" style="enable-background:new 0 0 1080 1920;" xml:space="preserve">
<style type="text/css">
	.st0{fill:#0071BC;}
	.st1{fill:#0000FF;}
	.st2{fill:#42210B;}
	.st3{fill:#FFDBAC;}
	.st4{fill:#FFFFFF;}
	.st5{fill:#FBB03B;}
	.st6{opacity:0.49;fill:url(#SVGID_1_);}
	.st7{fill:#42210B;stroke:#4D4D4D;stroke-miterlimit:10;}
	.st8{fill:#C1272D;}
	.st9{clip-path:url(#SVGID_3_);fill:#FFFFFF;}
</style>
<g>
	<circle class="st0" cx="526.88" cy="946.38" r="8220.66"/>
	<path class="st1" d="M4732.34-358.68c0-244.47-125.5-459.52-315.5-584.57v-1678.42c0-105.11-12.6-207.22-35.71-305.27h35.71v0
		c0-1127.8-914.26-2042.06-2042.06-2042.06H-771c-1098.92,0-1989.77,890.85-1989.77,1989.77v52.29h40.34v1904.18
		C-2901.98-865.61-3017-633.66-3017-374.7v1802.29v1311.46v194.83c0,953.04,541.36,1779.57,1333.3,2189.07v26.28
		c0,732.5,593.8,1326.3,1326.3,1326.3h3447.94c732.49,0,1326.3-593.8,1326.3-1326.3V225.89
		C4606.83,100.83,4732.34-114.22,4732.34-358.68z"/>
	<path class="st2" d="M3657.86,6878.12h-5938.49c-44.75,0-81.02-36.27-81.02-81.02V-3464.35c0-44.75,36.28-81.02,81.02-81.02
		h5938.49c44.75,0,81.02,36.28,81.02,81.02V6797.1C3738.88,6841.85,3702.6,6878.12,3657.86,6878.12z"/>
	<path class="st2" d="M-2837.94,3998.67h-804.66c-28.91,0-52.35-23.44-52.35-52.35V-776.76c0-28.91,23.44-52.35,52.35-52.35h804.66
		V3998.67z"/>
	<path class="st3" d="M3016.43,5573.15h-6250.24c-90.89,0-164.57-73.68-164.57-164.57v-9387.87c0-48.23,39.1-87.33,87.33-87.33
		h6498.96c39,0,70.61,31.61,70.61,70.61v9327.08C3258.52,5464.76,3150.13,5573.15,3016.43,5573.15z"/>
	<circle class="st4" cx="-1761.44" cy="-556.29" r="600.21"/>
	<circle class="st4" cx="1130.49" cy="-556.29" r="600.21"/>
	<circle cx="-1761.44" cy="-556.29" r="272.82"/>
	<circle cx="1130.49" cy="-556.29" r="272.82"/>
	<path d="M-958.69-1371.38h-1605.51c-10.3,0-18.65-8.35-18.65-18.65v-573.4c0-10.3,8.35-18.65,18.65-18.65h1605.51
		c10.3,0,18.65,8.35,18.65,18.65v573.4C-940.03-1379.73-948.39-1371.38-958.69-1371.38z"/>
	<path d="M1933.25-1371.38H327.74c-10.3,0-18.65-8.35-18.65-18.65v-573.4c0-10.3,8.35-18.65,18.65-18.65h1605.51
		c10.3,0,18.65,8.35,18.65,18.65v573.4C1951.9-1379.73,1943.55-1371.38,1933.25-1371.38z"/>
	<path class="st2" d="M3738.88-2524.34h-7177.61v-1920.5c0-67.13,54.42-121.55,121.55-121.55h6931.3
		c68.9,0,124.75,55.85,124.75,124.75V-2524.34z"/>
	<circle class="st3" cx="3354.92" cy="43.92" r="699.46"/>
	<circle class="st5" cx="3354.92" cy="43.92" r="383.96"/>
	<path class="st2" d="M3354.92,3998.67h-804.66c-28.91,0-52.35-23.44-52.35-52.35V-776.76c0-28.91,23.44-52.35,52.35-52.35h804.66
		V3998.67z"/>
	
		<linearGradient id="SVGID_1_" gradientUnits="userSpaceOnUse" x1="-1174.5896" y1="944.0853" x2="693.0562" y2="944.0853" gradientTransform="matrix(6.123234e-17 -1 1 6.123234e-17 -1259.5547 187.1119)">
		<stop  offset="0" style="stop-color:#FFFFFF;stop-opacity:0"/>
		<stop  offset="1" style="stop-color:#FFFFFF"/>
	</linearGradient>
	<path class="st6" d="M364.39-469.6v1794.95c0,20.07-16.27,36.35-36.35,36.35H-958.98c-20.07,0-36.35-16.27-36.35-36.35V-469.6
		c0-20.07,16.27-36.35,36.35-36.35H328.04C348.12-505.94,364.39-489.67,364.39-469.6z"/>
	<circle cx="-91.24" cy="753.26" r="124.83"/>
	<circle cx="-615.82" cy="743.38" r="124.83"/>
	<path class="st7" d="M2776.81,5799.41h-6321.3c-83.1,0-150.46-67.36-150.46-150.46v-4585.2c0-27.54,22.33-49.87,49.87-49.87
		h6521.63c27.54,0,49.87,22.33,49.87,49.87v4586.05C2926.41,5732.43,2859.43,5799.41,2776.81,5799.41z"/>
	<g>
		<path class="st8" d="M1472.08,3816.83h-3575.1c-47.8,0-86.56-38.75-86.56-86.56V1942.72h3748.21v1787.55
			C1558.63,3778.07,1519.88,3816.83,1472.08,3816.83z"/>
		<g>
			<defs>
				<path id="SVGID_2_" d="M1472.08,3816.83h-3575.1c-47.8,0-86.56-38.75-86.56-86.56V1942.72h3748.21v1787.55
					C1558.63,3778.07,1519.88,3816.83,1472.08,3816.83z"/>
			</defs>
			<clipPath id="SVGID_3_">
				<use xlink:href="#SVGID_2_"  style="overflow:visible;"/>
			</clipPath>
			<path class="st9" d="M1605.44,2547.95h-3841.83c-10.63,0-19.25-8.62-19.25-19.25v-795.29c0-10.63,8.62-19.25,19.25-19.25h3841.83
				c10.63,0,19.25,8.62,19.25,19.25v795.29C1624.7,2539.33,1616.08,2547.95,1605.44,2547.95z"/>
			<path class="st9" d="M1545.75,3816.83h-3854.57c-7.12,0-12.88-5.77-12.88-12.88V3271.8c0-7.12,5.77-12.88,12.88-12.88h3854.57
				c7.12,0,12.88,5.77,12.88,12.88v532.15C1558.63,3811.06,1552.86,3816.83,1545.75,3816.83z"/>
		</g>
	</g>
</g>
</svg>
