<?xml version="1.0" encoding="utf-8"?>
<!-- Generator: Adobe Illustrator 25.3.1, SVG Export Plug-In . SVG Version: 6.00 Build 0)  -->
<svg version="1.1" id="Layer_1" xmlns="http://www.w3.org/2000/svg" xmlns:xlink="http://www.w3.org/1999/xlink" x="0px" y="0px"
	 viewBox="0 0 14400 14400" style="enable-background:new 0 0 14400 14400;" xml:space="preserve">
<style type="text/css">
	.st0{fill:#0071BC;}
	.st1{fill:#0000FF;}
	.st2{fill:#42210B;}
	.st3{fill:#FFDBAC;}
	.st4{fill:#FFFFFF;}
	.st5{fill:#FBB03B;}
	.st6{opacity:0.49;fill:url(#SVGID_1_);}
	.st7{fill:#42210B;stroke:#4D4D4D;stroke-width:16.22;stroke-miterlimit:10;}
	.st8{fill:#C1272D;}
	.st9{clip-path:url(#SVGID_3_);fill:#FFFFFF;}
</style>
<g>
	<circle class="st0" cx="7176.35" cy="7175.85" r="8145.64"/>
	<path class="st1" d="M11343.43,5882.71c0-242.23-124.36-455.32-312.62-579.23V3640.37c0-104.15-12.49-205.33-35.38-302.48h35.38v0
		c0-1117.5-905.92-2023.42-2023.42-2023.42H5890.32c-1088.89,0-1971.61,882.72-1971.61,1971.61v51.81h39.97v1886.81
		c-179.89,155.71-293.86,385.54-293.86,642.14v1785.84v1299.49v193.05c0,944.34,536.42,1763.33,1321.13,2169.09v26.04
		c0,725.81,588.39,1314.2,1314.19,1314.2h3416.47c725.81,0,1314.2-588.38,1314.2-1314.2V6461.94
		C11219.08,6338.03,11343.43,6124.94,11343.43,5882.71z"/>
	<path class="st2" d="M9044.85,13053.47H5628.38c-725.81,0-1314.19-588.39-1314.19-1314.2V4039.29
		c0-725.81,588.39-1314.2,1314.19-1314.2h3416.47c725.81,0,1314.19,588.39,1314.19,1314.2v7699.98
		C10359.04,12465.08,9770.66,13053.47,9044.85,13053.47z"/>
	<path class="st2" d="M3842.25,10200.29L3842.25,10200.29c-469,0-849.2-380.2-849.2-849.2V6265.76c0-469,380.2-849.19,849.19-849.19
		h0V10200.29z"/>
	<path class="st3" d="M5956.33,11760.4L5956.33,11760.4c-1474.28,0-2669.41-1195.13-2669.41-2669.41V3625.17
		c0-782.35,634.22-1416.57,1416.57-1416.57h4034.25c632.55,0,1145.33,512.78,1145.33,1145.33v4479.73
		C9883.07,10002.34,8125.01,11760.4,5956.33,11760.4z"/>
	<circle class="st4" cx="4908.92" cy="5686.9" r="594.74"/>
	<circle class="st4" cx="7774.46" cy="5686.9" r="594.74"/>
	<circle cx="4908.92" cy="5686.9" r="270.33"/>
	<circle cx="7774.46" cy="5686.9" r="270.33"/>
	<path d="M5420.26,4879.25H4397.58c-167.1,0-302.57-135.46-302.57-302.57v0c0-167.1,135.46-302.57,302.57-302.57h1022.69
		c167.1,0,302.57,135.46,302.57,302.57v0C5722.83,4743.79,5587.37,4879.25,5420.26,4879.25z"/>
	<path d="M8285.8,4879.25H7263.12c-167.1,0-302.57-135.46-302.57-302.57v0c0-167.1,135.46-302.57,302.57-302.57H8285.8
		c167.1,0,302.57,135.46,302.57,302.57v0C8588.37,4743.79,8452.91,4879.25,8285.8,4879.25z"/>
	<path class="st2" d="M10359.04,3736.81h-7112.1V3685c0-1088.89,882.72-1971.61,1971.61-1971.61h3117.07
		C9453.13,1713.39,10359.04,2619.3,10359.04,3736.81L10359.04,3736.81z"/>
	<circle class="st3" cx="9978.59" cy="6281.63" r="693.08"/>
	<circle class="st5" cx="9978.59" cy="6281.63" r="380.46"/>
	<path class="st2" d="M9978.59,10200.29L9978.59,10200.29c-469,0-849.2-380.2-849.2-849.2V6265.76c0-469,380.2-849.19,849.19-849.19
		h0V10200.29z"/>
	
		<linearGradient id="SVGID_1_" gradientUnits="userSpaceOnUse" x1="5498.7227" y1="7181.2505" x2="7349.3242" y2="7181.2505" gradientTransform="matrix(6.123234e-17 -1 1 6.123234e-17 -839.5547 13086.1123)">
		<stop  offset="0" style="stop-color:#FFFFFF;stop-opacity:0"/>
		<stop  offset="1" style="stop-color:#FFFFFF"/>
	</linearGradient>
	<path class="st6" d="M7015.35,6326.33v671.52c0,325.59-263.95,589.54-589.54,589.54h-168.23c-325.59,0-589.54-263.95-589.54-589.54
		v-671.52c0-325.59,263.95-589.54,589.54-589.54h168.23C6751.4,5736.79,7015.35,6000.73,7015.35,6326.33z"/>
	<circle cx="6563.88" cy="6984.5" r="123.69"/>
	<circle cx="6044.09" cy="6974.71" r="123.69"/>
	<path class="st7" d="M7127.4,11984.6H5433.51c-1347.83,0-2440.46-1092.63-2440.46-2440.46V8051.6
		c0-446.72,362.13-808.85,808.85-808.85h4943.24c446.72,0,808.85,362.13,808.85,808.85v1506.41
		C9553.99,10898.18,8467.57,11984.6,7127.4,11984.6z"/>
	<g>
		<path class="st8" d="M6794.74,10020.11h-906.09c-775.38,0-1403.96-628.57-1403.96-1403.96V8163.1H8198.7v453.05
			C8198.7,9391.53,7570.12,10020.11,6794.74,10020.11z"/>
		<g>
			<defs>
				<path id="SVGID_2_" d="M6794.74,10020.11h-906.09c-775.38,0-1403.96-628.57-1403.96-1403.96V8163.1H8198.7v453.05
					C8198.7,9391.53,7570.12,10020.11,6794.74,10020.11z"/>
			</defs>
			<clipPath id="SVGID_3_">
				<use xlink:href="#SVGID_2_"  style="overflow:visible;"/>
			</clipPath>
			<path class="st9" d="M7951.84,8762.82H4731.54c-172.49,0-312.31-139.83-312.31-312.31v-201.56
				c0-172.48,139.83-312.31,312.31-312.31h3220.31c172.49,0,312.31,139.83,312.31,312.31v201.56
				C8264.16,8622.99,8124.33,8762.82,7951.84,8762.82z"/>
			<path class="st9" d="M7989.72,10020.11H4562.74c-115.41,0-208.98-93.56-208.98-208.98v-134.87
				c0-115.41,93.56-208.98,208.98-208.98h3426.98c115.41,0,208.98,93.56,208.98,208.98v134.87
				C8198.7,9926.55,8105.13,10020.11,7989.72,10020.11z"/>
		</g>
	</g>
</g>
</svg>
