<svg class="topography-shape js-shape" width="1200px" height="400px" viewBox="0 0 1200 400" version="1.1" xmlns="http://www.w3.org/2000/svg" xmlns:xlink="http://www.w3.org/1999/xlink">
      <rect width="1200" height="400" fill="black" />
      <line x1='0' y1='0' x2='1200' y2='0' stroke="#2600ff" stroke-width="15" fill="none"/>
      <line x1='1200' y1='0' x2='1200' y2='240' stroke="#2600ff" stroke-width="15" fill="none"/>
      <line x1='0' y1='240' x2='1200' y2='240' stroke="#2600ff" stroke-width="10" fill="none"/>
      <line x1='1200' y1='340' x2='1200' y2='400' stroke="#2600ff" stroke-width="15" fill="none"/>
      <line x1='0' y1='400' x2='1200' y2='400' stroke="#2600ff" stroke-width="15" fill="none"/>
      <line x1='0' y1='400' x2='0' y2='340' stroke="#2600ff" stroke-width="15" fill="none"/>
      <line x1='0' y1='340' x2='1200' y2='340' stroke="#2600ff" stroke-width="10" fill="none"/>
      <line x1='0' y1='240' x2='0' y2='0' stroke="#2600ff" stroke-width="15" fill="none"/>
      
      <svg x="-100" y="240" height="100" id="pacman" >
      <circle cx="50" cy="50" r="35" fill="yellow"/>
      <circle cx="45" cy="35" r="5" fill="black"/>
      <polygon points="50, 50, 100, 15, 100, 85" >
      <animate attributeName="fill" values="black;transparent;black" dur=".35s" repeatCount="indefinite" />
      </polygon>
      <animate attributeName="x" values="-100;1300" dur="9.99s" begin="3.75s" repeatCount="indefinite"/>
      </svg>
      
      <svg x="-100" y="240" height="100" class="ghost">
          <circle cx="50" cy="45" r="35" fill="red" />
          <polygon points="15,50 15,85 32,75 50,85 68,75 85,85 85,50" fill="red"/>
          <circle cx="40" cy="40" r="5" fill="white"/>
          <circle cx="65" cy="40" r="5" fill="white" />
          <animate attributeName="x" values="-100;1300" dur="10s" repeatCount="indefinite"/>
      </svg>
      <svg x="-100" y="240" height="100" class="ghost">
          <circle cx="50" cy="45" r="35" fill="cyan" />
          <polygon points="15,50 15,85 32,75 50,85 68,75 85,85 85,50" fill="cyan"/>
          <circle cx="40" cy="40" r="5" fill="white"/>
          <circle cx="65" cy="40" r="5" fill="white" />
          <animate attributeName="x" values="-100;1300" dur="10s" begin=".75s" repeatCount="indefinite"/>
      </svg>
      <svg x="-100" y="240" height="100" class="ghost">
          <circle cx="50" cy="45" r="35" fill="pink" />
          <polygon points="15,50 15,85 32,75 50,85 68,75 85,85 85,50" fill="pink"/>
          <circle cx="40" cy="40" r="5" fill="white"/>
          <circle cx="65" cy="40" r="5" fill="white" />
          <animate attributeName="x" values="-100;1300" dur="10s" begin="1.5s" repeatCount="indefinite"/>
      </svg>
      <svg x="-100" y="240" height="100" class="ghost">
          <circle cx="50" cy="45" r="35" fill="orange" />
          <polygon points="15,50 15,85 32,75 50,85 68,75 85,85 85,50" fill="orange"/>
          <circle cx="40" cy="40" r="5" fill="white"/>
          <circle cx="65" cy="40" r="5" fill="white" />
          <animate attributeName="x" values="-100;1300" dur="10s" begin="2.25s" repeatCount="indefinite"/>
      </svg>
      <text x="300" y="100" fill="yellow" font-size="80" textLength="600">Rich Kevan</text>
      <text x="300" y="200" fill="yellow" font-size="50" textLength="600">Application Engineer</text>
      <image href="devAvatar.png" x="20" y="20" height="200" width="200" />
      <a href="https://richkevan.com">
      <image href="social/earth-americas-solid.svg" x="20" y="350" height="40" width="40"/>
      </a>
      <a href="https://www.linkedin.com/in/rich-kevan">
      <image href="social/linkedin.svg" x="70" y="350" height="40" width="40"/>
      </a>
      <a href="https://twitter.com/intent/follow?screen_name=richkevan">
      <image href="social/twitter.svg" x="120" y="350" height="40" width="40"/>
      </a>
      <a href="https://www.twitch.tv/richkevan">
      <image href="social/twitch.svg" x="170" y="350" height="40" width="40"/>
      </a>
    </svg>